<svg xmlns="http://www.w3.org/2000/svg" viewBox="0 0 447 447" width="447" height="447">
<path d="M48.86 48.85C165.29 48.85 281.72 48.85 398.14 48.85C398.14 165.28 398.14 281.71 398.14 398.14C281.72 398.14 165.29 398.14 48.86 398.14C48.86 281.71 48.86 165.28 48.86 48.85ZM169.75 131.17C158.92 131.17 148.08 131.17 137.25 131.17C136.51 135.39 136.96 139.96 136.96 144.25C136.96 152.25 136.96 160.25 136.96 168.25C136.96 192.92 136.96 217.58 136.96 242.25C136.96 256.1 137.91 278.02 123.37 285.63C117.28 288.82 108.6 289.01 101.93 287.76C98.12 287.05 94 284.69 90.2 284.75C90.2 294.08 90.2 303.42 90.2 312.75C99.22 314.63 108.77 316.22 118.04 315.76C124.71 315.42 131.7 314.96 138.06 312.77C174.45 300.21 170.13 256.74 170.13 225.75C170.13 217.92 170.13 210.08 170.13 202.25C170.13 186.42 170.13 170.58 170.13 154.75C170.13 147.29 171.4 138.43 169.75 131.17ZM267.75 211.93C264.34 209.83 257.4 196.51 254.83 192.39C245.77 177.87 236.34 163.55 227.18 149.09C224.53 144.91 221.9 140.72 219.21 136.55C218.28 135.1 217.33 132.32 215.79 131.45C213.52 130.17 208.35 131.16 205.75 131.16C199.1 131.16 183.3 129.85 177.75 131.46C177.97 134.24 181.15 137.26 182.66 139.6C186.88 146.17 191.5 152.46 195.73 159C208.21 178.25 221.66 196.86 234.18 216.1C238.02 222.01 242.08 227.84 246.05 233.69C247.18 235.34 249 237.13 249.72 239C251.09 242.54 250 254.81 250 259.25C250 271.58 250 283.92 250 296.25C250 302.1 249.31 308.46 250.25 314.23C261.08 314.23 271.92 314.23 282.75 314.23C284.34 308.57 283.17 301.16 283.17 295.25C283.17 282.25 283.17 269.25 283.17 256.25C283.17 251.62 282.05 243.3 283.33 239.09C284.73 234.47 296.28 220.02 299.65 214.9C312.79 194.9 326.22 174.85 340.19 155.42C344 150.12 354.16 137.06 356.13 131.75C354.17 130.51 350.62 131.16 348.25 131.16C341.75 131.16 335.25 131.16 328.75 131.16C326.53 131.16 322.2 130.33 320.28 131.49C318.38 132.64 317.2 135.92 315.98 137.72C312.73 142.51 309.66 147.43 306.54 152.31C299.24 163.76 291.31 174.89 284.26 186.49C279.14 194.92 274 204.3 267.75 211.93Z" fill="#ffffff" fill-rule="evenodd" stroke="#ffffff" stroke-width="0.25" stroke-linejoin="round"/>
<path d="M45.98 0.08C164.34 0.08 282.7 0.08 401.06 0.08C404.13 1.79 408.42 1.25 411.76 2.35C422.97 6.06 435 15.82 440.62 26.25C442.94 30.57 444.36 35.3 445.84 39.76C446.52 41.82 445.8 43.92 446.92 45.92C446.92 164.27 446.92 282.63 446.92 400.98C445.88 402.38 446.21 404.03 446.06 405.73C445.76 409.17 442.95 417.91 440.25 420.23C440.82 421.82 437.95 424.16 437.08 425.32C433.57 430.02 430.02 433.57 425.32 437.08C424.16 437.95 421.82 440.82 420.23 440.25C417.91 442.95 409.17 445.76 405.73 446.06C404.03 446.21 402.38 445.88 400.98 446.92C282.63 446.92 164.27 446.92 45.92 446.92C43.92 445.8 41.82 446.52 39.76 445.84C35.3 444.36 30.57 442.94 26.25 440.62C15.82 435 6.06 422.97 2.35 411.76C1.25 408.42 1.79 404.13 0.08 401.06C0.08 282.68 0.08 164.3 0.08 45.92C1.72 42.99 1.22 38.89 2.19 35.73C4.59 27.97 12.2 15.5 19.37 11.12C24.52 7.97 29.3 4.32 35.24 2.35C37.96 1.45 44.23 1.6 45.98 0.08ZM48.86 48.85C48.86 165.28 48.86 281.71 48.86 398.14C165.29 398.14 281.72 398.14 398.14 398.14C398.14 281.71 398.14 165.28 398.14 48.85C281.72 48.85 165.29 48.85 48.86 48.85Z" fill="#b1cb39" fill-rule="evenodd" stroke="#b1cb39" stroke-width="0.25" stroke-linejoin="round"/>
<path d="M169.75 131.17C171.4 138.43 170.13 147.29 170.13 154.75C170.13 170.58 170.13 186.42 170.13 202.25C170.13 210.08 170.13 217.92 170.13 225.75C170.13 256.74 174.45 300.21 138.06 312.77C131.7 314.96 124.71 315.42 118.04 315.76C108.77 316.22 99.22 314.63 90.2 312.75C90.2 303.42 90.2 294.08 90.2 284.75C94 284.69 98.12 287.05 101.93 287.76C108.6 289.01 117.28 288.82 123.37 285.63C137.91 278.02 136.96 256.1 136.96 242.25C136.96 217.58 136.96 192.92 136.96 168.25C136.96 160.25 136.96 152.25 136.96 144.25C136.96 139.96 136.51 135.39 137.25 131.17C148.08 131.17 158.92 131.17 169.75 131.17ZM267.75 211.93C274 204.3 279.14 194.92 284.26 186.49C291.31 174.89 299.24 163.76 306.54 152.31C309.66 147.43 312.73 142.51 315.98 137.72C317.2 135.92 318.38 132.64 320.28 131.49C322.2 130.33 326.53 131.16 328.75 131.16C335.25 131.16 341.75 131.16 348.25 131.16C350.62 131.16 354.17 130.51 356.13 131.75C354.16 137.06 344 150.12 340.19 155.42C326.22 174.85 312.79 194.9 299.65 214.9C296.28 220.02 284.73 234.47 283.33 239.09C282.05 243.3 283.17 251.62 283.17 256.25C283.17 269.25 283.17 282.25 283.17 295.25C283.17 301.16 284.34 308.57 282.75 314.23C271.92 314.23 261.08 314.23 250.25 314.23C249.31 308.46 250 302.1 250 296.25C250 283.92 250 271.58 250 259.25C250 254.81 251.09 242.54 249.72 239C249 237.13 247.18 235.34 246.05 233.69C242.08 227.84 238.02 222.01 234.18 216.1C221.66 196.86 208.21 178.25 195.73 159C191.5 152.46 186.88 146.17 182.66 139.6C181.15 137.26 177.97 134.24 177.75 131.46C183.3 129.85 199.1 131.16 205.75 131.16C208.35 131.16 213.52 130.17 215.79 131.45C217.33 132.32 218.28 135.1 219.21 136.55C221.9 140.72 224.53 144.91 227.18 149.09C236.34 163.55 245.77 177.87 254.83 192.39C257.4 196.51 264.34 209.83 267.75 211.93Z" fill="#000000" fill-rule="evenodd" stroke="#000000" stroke-width="0.25" stroke-linejoin="round"/>
</svg>
